<svg width="513" height="512" viewBox="0 0 513 512" fill="none" xmlns="http://www.w3.org/2000/svg">
<path d="M511.291 183.084C497.121 161.929 480.108 142.552 460.669 125.422L502.076 91.7123L490.058 78.8527L446.855 114.023C425.951 97.8953 402.689 84.6285 377.771 74.6227L402.013 29.3992L385.656 21.7706L360.701 68.3234C330.717 58.3837 299.291 52.738 267.494 51.5802V0H249.208V51.2487C216.021 51.2615 183.065 56.4019 151.68 66.4611L127.724 21.7706L111.366 29.3992L134.57 72.6867C111.396 82.0135 89.7674 94.3763 70.3363 109.402L26.1165 78.4625L15.1518 92.1046L56.3385 120.921C35.4891 139.4 17.2581 160.292 2.08997 183.085C0.223671 185.861 0.223671 189.387 2.08997 192.163C24.4045 225.78 54.0265 254.662 89.0439 276.943C50.887 364.162 95.7549 463.72 189.261 499.312C282.766 534.904 389.499 493.052 427.656 405.832C445.719 364.543 445.73 318.298 427.683 277.001C434.333 272.571 440.893 267.913 447.166 262.887C472.212 242.436 493.828 218.595 511.291 192.162C513.157 189.386 513.157 185.859 511.291 183.084ZM94.2406 349.66H158.024C158.547 377.303 163.448 404.722 172.566 431.028C157.822 432.678 143.697 434.793 130.263 437.294C108.686 412.337 96.0829 381.676 94.2406 349.66ZM172.567 251.236C163.448 277.543 158.549 304.961 158.025 332.604H94.2417C96.084 300.589 108.688 269.927 130.264 244.969C143.697 247.471 157.822 249.585 172.567 251.236ZM144.905 230.203C162.039 214.94 182.504 203.306 204.901 196.098C194.223 207.642 185.574 220.69 179.276 234.76C167.429 233.516 155.926 232.007 144.905 230.203ZM144.905 452.061C155.925 450.257 167.429 448.749 179.277 447.505C185.575 461.574 194.224 474.624 204.902 486.168C182.505 478.958 162.04 467.324 144.905 452.061ZM249.208 493.577C229.637 489.322 211.947 471.616 198.843 445.739C215.17 444.491 232.026 443.762 249.208 443.57V493.577V493.577ZM249.208 426.513C229.489 426.729 210.145 427.619 191.518 429.191C182.056 403.577 176.924 376.746 176.304 349.66H249.208V426.513V426.513ZM249.208 332.604H176.304C176.924 305.518 182.056 278.687 191.518 253.073C210.145 254.647 229.489 255.536 249.208 255.751V332.604V332.604ZM249.208 238.696C232.026 238.504 215.17 237.774 198.843 236.526C211.947 210.649 229.637 192.943 249.208 188.688V238.696V238.696ZM267.494 493.577V443.569C284.676 443.761 301.532 444.49 317.859 445.738C304.755 471.616 287.064 489.322 267.494 493.577ZM317.859 236.526C301.532 237.774 284.676 238.504 267.494 238.696V188.688C287.064 192.942 304.755 210.648 317.859 236.526ZM311.8 196.098C334.197 203.306 354.662 214.94 371.797 230.203C360.778 232.007 349.274 233.516 337.427 234.76C331.127 220.691 322.478 207.642 311.8 196.098ZM325.183 253.073C334.645 278.687 339.778 305.518 340.397 332.604H267.494V255.751C287.214 255.536 306.557 254.647 325.183 253.073ZM340.397 349.66C339.778 376.746 334.645 403.577 325.183 429.191C306.557 427.618 287.213 426.729 267.494 426.513V349.66H340.397ZM311.799 486.167C322.477 474.622 331.126 461.573 337.425 447.504C349.272 448.748 360.776 450.256 371.795 452.06C354.661 467.324 334.197 478.958 311.799 486.167ZM386.439 437.295C373.003 434.793 358.88 432.679 344.135 431.029C353.254 404.722 358.154 377.304 358.677 349.662H422.461C420.618 381.676 408.015 412.337 386.439 437.295ZM358.677 332.604C358.154 304.961 353.253 277.542 344.135 251.236C358.88 249.586 373.004 247.471 386.439 244.97C408.015 269.928 420.618 300.59 422.461 332.605H358.677V332.604ZM435.254 249.944C430.264 253.945 425.076 257.682 419.824 261.282C410.77 245.458 399.11 231.059 385.27 218.61C385.934 213.991 386.295 209.34 386.353 204.679C386.342 138.728 329.015 85.2724 258.311 85.283C206.642 85.2905 160.042 114.27 140.163 158.757L157.039 165.319C180.269 113.193 244.402 88.5014 300.285 110.169C303.342 111.354 306.34 112.667 309.269 114.107C295.997 120.836 291.086 136.329 298.302 148.709C305.517 161.089 322.126 165.67 335.398 158.939C341.106 156.045 345.523 151.35 347.859 145.695C361.005 162.918 368.069 183.537 368.068 204.679L368.053 204.992C303.198 159.09 213.508 159.09 148.653 204.992L148.635 204.679C148.632 196.723 149.618 188.795 151.573 181.052L133.769 177.137C131.492 186.164 130.345 195.406 130.349 204.679C130.408 209.339 130.769 213.991 131.433 218.609C117.584 231.067 105.92 245.476 96.8634 261.309C66.5843 241.589 40.7109 216.558 20.6879 187.614C76.5718 107.295 152.359 68.2264 252.199 68.2264C353.485 68.2264 438.655 110.577 492.692 187.631C476.813 210.839 457.473 231.821 435.254 249.944ZM331.494 136.453C331.494 141.163 327.4 144.981 322.351 144.981C317.302 144.981 313.208 141.163 313.208 136.453C313.208 131.743 317.302 127.925 322.351 127.925C327.399 127.928 331.491 131.744 331.494 136.453Z" fill="#FFF9F0"/>
</svg>
